<svg xmlns="http://www.w3.org/2000/svg" xmlns:xlink="http://www.w3.org/1999/xlink" width="30" height="30" viewBox="0 0 30 30">
    <defs>
        <path id="a" d="M218 986.007h20.993V1007H218z"/>
    </defs>
    <g fill="none" fill-rule="evenodd" transform="translate(-213 -981)">
        <rect width="30" height="30" x="213" y="981" fill="#D8D8D8" rx="2"/>
        <mask id="b" fill="#fff">
            <use xlink:href="#a"/>
        </mask>
        <path fill="#FFF" d="M228.497 986.007c-2.851 0-3.209.012-4.328.063-1.117.05-1.88.228-2.548.488a5.145 5.145 0 0 0-1.86 1.21 5.145 5.145 0 0 0-1.21 1.86c-.26.667-.437 1.43-.488 2.548-.05 1.12-.063 1.477-.063 4.327 0 2.851.012 3.209.063 4.328.051 1.117.229 1.88.488 2.548.268.69.627 1.276 1.21 1.86a5.146 5.146 0 0 0 1.86 1.21c.668.26 1.43.437 2.548.488 1.12.05 1.477.063 4.328.063 2.85 0 3.208-.012 4.327-.063 1.118-.051 1.88-.229 2.548-.488a5.145 5.145 0 0 0 1.86-1.21 5.145 5.145 0 0 0 1.21-1.86c.26-.668.437-1.43.488-2.548.051-1.12.063-1.477.063-4.328 0-2.85-.012-3.208-.063-4.327-.05-1.118-.228-1.88-.488-2.548a5.145 5.145 0 0 0-1.21-1.86 5.145 5.145 0 0 0-1.86-1.21c-.667-.26-1.43-.437-2.548-.488-1.12-.051-1.477-.063-4.327-.063m0 1.89c2.802 0 3.134.012 4.241.062 1.024.047 1.58.218 1.95.362.49.19.839.417 1.206.785.368.367.595.717.785 1.207.144.37.315.925.362 1.949.05 1.107.061 1.439.061 4.241 0 2.803-.01 3.135-.061 4.242-.047 1.023-.218 1.58-.362 1.949-.19.49-.417.84-.785 1.207a3.252 3.252 0 0 1-1.207.785c-.37.144-.925.315-1.949.361-1.106.051-1.438.062-4.241.062s-3.135-.011-4.242-.062c-1.023-.046-1.58-.217-1.949-.36-.49-.191-.84-.419-1.207-.786a3.253 3.253 0 0 1-.785-1.207c-.144-.37-.315-.926-.362-1.95-.05-1.106-.06-1.438-.06-4.24 0-2.803.01-3.135.06-4.242.047-1.024.218-1.58.362-1.95.19-.49.418-.839.785-1.206a3.252 3.252 0 0 1 1.207-.785c.37-.144.926-.315 1.95-.362 1.106-.05 1.438-.061 4.24-.061" mask="url(#b)"/>
        <path fill="#FFF" d="M228.5 999.908a3.408 3.408 0 1 1 0-6.816 3.408 3.408 0 0 1 0 6.816m0-8.658a5.25 5.25 0 1 0 0 10.5 5.25 5.25 0 0 0 0-10.5M236.375 991.578a1.64 1.64 0 1 1-3.281 0 1.64 1.64 0 0 1 3.281 0" mask="url(#b)"/>
    </g>
</svg>
