<svg xmlns="http://www.w3.org/2000/svg" viewBox="0 0 158.66 21.9"><defs><style>.cls-1{fill:#b9acff;}</style></defs><title>Asset 3</title><g id="Layer_2" data-name="Layer 2"><g id="레이어_1" data-name="레이어 1"><path class="cls-1" d="M0,4.76H3l2.47,7,2.67-7H10l2.62,6.93,2.48-6.93h3L13.67,17.08h-2l-2.63-7-2.71,7H4.44Z"/><path class="cls-1" d="M25.93,4.44a6.57,6.57,0,0,1,3.28.87,6.41,6.41,0,0,1,3.25,5.59,6.58,6.58,0,0,1-.86,3.27,6.32,6.32,0,0,1-2.36,2.37,6.54,6.54,0,0,1-3.3.85,6.15,6.15,0,0,1-4.52-1.88,6.27,6.27,0,0,1-1.88-4.58,6.26,6.26,0,0,1,2.12-4.82A6.22,6.22,0,0,1,25.93,4.44ZM26,7.35a3.18,3.18,0,0,0-2.4,1,3.56,3.56,0,0,0-1,2.57,3.62,3.62,0,0,0,.95,2.6,3.38,3.38,0,0,0,4.81,0,3.57,3.57,0,0,0,1-2.59,3.59,3.59,0,0,0-1-2.58A3.2,3.2,0,0,0,26,7.35Z"/><path class="cls-1" d="M41,4.44a6.51,6.51,0,0,1,3.27.87,6.28,6.28,0,0,1,2.4,2.37,6.37,6.37,0,0,1,.86,3.22,6.48,6.48,0,0,1-.87,3.27,6.18,6.18,0,0,1-2.36,2.37,6.48,6.48,0,0,1-3.29.85,6.18,6.18,0,0,1-4.53-1.88,6.26,6.26,0,0,1-1.87-4.58,6.23,6.23,0,0,1,2.12-4.82A6.2,6.2,0,0,1,41,4.44Zm.05,2.91a3.18,3.18,0,0,0-2.4,1,3.56,3.56,0,0,0-1,2.57,3.58,3.58,0,0,0,.95,2.6,3.18,3.18,0,0,0,2.39,1,3.21,3.21,0,0,0,2.42-1,3.61,3.61,0,0,0,1-2.59,3.58,3.58,0,0,0-.94-2.58A3.2,3.2,0,0,0,41.06,7.35Z"/><path class="cls-1" d="M59.39,4.76h3.09V17.08H59.39V15.77A5.84,5.84,0,0,1,57.57,17a4.91,4.91,0,0,1-2,.38,5.46,5.46,0,0,1-4.13-1.85,6.46,6.46,0,0,1-1.74-4.6,6.61,6.61,0,0,1,1.69-4.68,5.36,5.36,0,0,1,4.09-1.82,5.19,5.19,0,0,1,2.08.42,5.79,5.79,0,0,1,1.8,1.25ZM56.14,7.29a3.1,3.1,0,0,0-2.38,1,3.64,3.64,0,0,0-.95,2.59,3.7,3.7,0,0,0,1,2.63,3.14,3.14,0,0,0,2.38,1,3.18,3.18,0,0,0,2.41-1,3.71,3.71,0,0,0,1-2.66,3.58,3.58,0,0,0-1-2.6A3.18,3.18,0,0,0,56.14,7.29Z"/><path class="cls-1" d="M65.84,4.76h3.09V6a7.34,7.34,0,0,1,1.9-1.23,4.45,4.45,0,0,1,1.75-.35,4.24,4.24,0,0,1,3.11,1.28,4.39,4.39,0,0,1,1.07,3.21v8.15H73.71v-5.4a13.72,13.72,0,0,0-.2-2.93,2,2,0,0,0-.69-1.1,2,2,0,0,0-1.22-.38A2.28,2.28,0,0,0,70,7.9a3.44,3.44,0,0,0-.93,1.73,14.3,14.3,0,0,0-.13,2.5v4.95H65.84Z"/><path class="cls-1" d="M89.09,4.76h3.08V15.31a7,7,0,0,1-1.26,4.6,6.31,6.31,0,0,1-5.08,2,9,9,0,0,1-3-.45,5.59,5.59,0,0,1-2.08-1.33A5.4,5.4,0,0,1,79.44,18h3.41a2.79,2.79,0,0,0,1.17.79A4.71,4.71,0,0,0,85.7,19a4.45,4.45,0,0,0,2-.38,2.38,2.38,0,0,0,1.07-1,5.14,5.14,0,0,0,.31-2.1,5.33,5.33,0,0,1-1.71,1.17,5.4,5.4,0,0,1-2,.36,5.59,5.59,0,0,1-4.19-1.79,6.32,6.32,0,0,1-1.71-4.53,6.31,6.31,0,0,1,1.81-4.71,5.38,5.38,0,0,1,3.92-1.61,5.22,5.22,0,0,1,2,.39,6.55,6.55,0,0,1,1.9,1.28ZM85.88,7.33a3.2,3.2,0,0,0-2.41,1,3.4,3.4,0,0,0-1,2.46,3.42,3.42,0,0,0,1,2.52,3.3,3.3,0,0,0,2.45,1,3.16,3.16,0,0,0,2.37-1,3.52,3.52,0,0,0,.94-2.53,3.44,3.44,0,0,0-.94-2.5A3.26,3.26,0,0,0,85.88,7.33Z"/><path class="cls-1" d="M108.43,6.48l-1.91,1.91a3.22,3.22,0,0,0-2.12-1.15,1.3,1.3,0,0,0-.81.22.65.65,0,0,0-.3.55.69.69,0,0,0,.19.45,3.76,3.76,0,0,0,.92.58l1.14.56A6.64,6.64,0,0,1,108,11.4a3.53,3.53,0,0,1,.67,2.15,3.55,3.55,0,0,1-1.2,2.74,4.61,4.61,0,0,1-3.24,1.1,5.14,5.14,0,0,1-4.3-2.1l1.9-2.08a4.25,4.25,0,0,0,1.28,1,2.77,2.77,0,0,0,1.29.39,1.54,1.54,0,0,0,1-.3.83.83,0,0,0,.37-.67c0-.48-.45-.94-1.35-1.4l-1-.52q-3-1.5-3-3.77a3.31,3.31,0,0,1,1.13-2.5,4.08,4.08,0,0,1,2.88-1,4.93,4.93,0,0,1,4.05,2Z"/><path class="cls-1" d="M120.42,4.76h3.09V17.08h-3.09V15.77A5.92,5.92,0,0,1,118.61,17a5,5,0,0,1-2,.38,5.46,5.46,0,0,1-4.13-1.85,6.46,6.46,0,0,1-1.74-4.6,6.61,6.61,0,0,1,1.69-4.68,5.36,5.36,0,0,1,4.09-1.82,5.19,5.19,0,0,1,2.08.42,5.79,5.79,0,0,1,1.8,1.25Zm-3.25,2.53a3.1,3.1,0,0,0-2.38,1,3.64,3.64,0,0,0-1,2.59,3.67,3.67,0,0,0,1,2.63,3.1,3.1,0,0,0,2.37,1,3.21,3.21,0,0,0,2.42-1,3.71,3.71,0,0,0,1-2.66,3.58,3.58,0,0,0-1-2.6A3.21,3.21,0,0,0,117.17,7.29Z"/><path class="cls-1" d="M126.53,0h3.09V17.08h-3.09Z"/><path class="cls-1" d="M138.45,4.44a6.51,6.51,0,0,1,3.27.87,6.28,6.28,0,0,1,2.4,2.37A6.37,6.37,0,0,1,145,10.9a6.48,6.48,0,0,1-.87,3.27,6.18,6.18,0,0,1-2.36,2.37,6.48,6.48,0,0,1-3.29.85,6.18,6.18,0,0,1-4.53-1.88,6.26,6.26,0,0,1-1.87-4.58,6.23,6.23,0,0,1,2.12-4.82A6.2,6.2,0,0,1,138.45,4.44Zm.05,2.91a3.18,3.18,0,0,0-2.4,1,3.56,3.56,0,0,0-1,2.57,3.58,3.58,0,0,0,1,2.6,3.18,3.18,0,0,0,2.39,1,3.21,3.21,0,0,0,2.42-1,3.61,3.61,0,0,0,1-2.59,3.58,3.58,0,0,0-.94-2.58A3.2,3.2,0,0,0,138.5,7.35Z"/><path class="cls-1" d="M147.74,4.76h3.09V6a7.34,7.34,0,0,1,1.9-1.23,4.45,4.45,0,0,1,1.75-.35,4.24,4.24,0,0,1,3.11,1.28,4.39,4.39,0,0,1,1.07,3.21v8.15h-3v-5.4a13.72,13.72,0,0,0-.2-2.93,2,2,0,0,0-.69-1.1,2,2,0,0,0-1.22-.38,2.28,2.28,0,0,0-1.61.63A3.44,3.44,0,0,0,151,9.63a14.3,14.3,0,0,0-.13,2.5v4.95h-3.09Z"/></g></g></svg>